<?xml version="1.0" standalone="no"?>
<!DOCTYPE svg PUBLIC "-//W3C//DTD SVG 20010904//EN"
 "http://www.w3.org/TR/2001/REC-SVG-20010904/DTD/svg10.dtd">
<svg version="1.0" xmlns="http://www.w3.org/2000/svg"
 width="81.000000pt" height="81.000000pt" viewBox="0 0 81.000000 81.000000"
 preserveAspectRatio="xMidYMid meet">
<metadata>
Created by potrace 1.14, written by Peter Selinger 2001-2017
</metadata>
<g transform="translate(0.000000,81.000000) scale(0.100000,-0.100000)"
fill="#000000" stroke="none">
<path d="M274 475 c-15 -23 -15 -27 0 -50 9 -13 31 -28 49 -33 22 -6 32 -14
32 -28 0 -24 -42 -32 -51 -10 -7 19 -44 21 -44 3 0 -43 92 -64 123 -29 34 38
14 79 -48 99 -16 5 -30 16 -30 24 0 20 44 24 51 5 7 -19 44 -21 44 -3 0 24
-36 47 -73 47 -28 0 -40 -6 -53 -25z"/>
<path d="M454 479 c-13 -14 -18 -36 -18 -74 0 -66 21 -95 70 -95 38 0 74 38
74 76 0 21 -5 24 -40 24 -29 0 -40 -4 -40 -15 0 -8 9 -15 20 -15 27 0 26 -27
-2 -36 -27 -8 -48 18 -48 59 0 59 37 88 62 47 16 -25 38 -26 38 -2 0 48 -81
70 -116 31z"/>
<path d="M602 483 c2 -10 13 -19 26 -21 21 -3 22 -8 22 -78 0 -67 2 -74 20
-74 18 0 20 7 20 75 0 73 1 75 25 75 18 0 25 5 25 20 0 18 -7 20 -71 20 -62 0
-70 -2 -67 -17z"/>
<path d="M60 390 c0 -20 5 -21 83 -18 65 2 82 6 82 18 0 12 -17 16 -82 18 -78
3 -83 2 -83 -18z"/>
</g>
</svg>
